<?xml version="1.0" encoding="UTF-8" standalone="no"?>
<!-- Created with Inkscape (http://www.inkscape.org/) -->

<svg
   width="3840"
   height="2160"
   viewBox="0 0 1016 571.50002"
   version="1.1"
   id="svg5"
   inkscape:version="1.1 (c68e22c387, 2021-05-23)"
   sodipodi:docname="thumbnail.svg"
   inkscape:export-filename="/home/cassidyjames/Pictures/thumbnail.png"
   inkscape:export-xdpi="96"
   inkscape:export-ydpi="96"
   xmlns:inkscape="http://www.inkscape.org/namespaces/inkscape"
   xmlns:sodipodi="http://sodipodi.sourceforge.net/DTD/sodipodi-0.dtd"
   xmlns="http://www.w3.org/2000/svg"
   xmlns:svg="http://www.w3.org/2000/svg">
  <sodipodi:namedview
     id="namedview7"
     pagecolor="#ffffff"
     bordercolor="#666666"
     borderopacity="1.0"
     inkscape:pageshadow="2"
     inkscape:pageopacity="0.0"
     inkscape:pagecheckerboard="true"
     inkscape:document-units="px"
     showgrid="false"
     units="px"
     width="3840px"
     inkscape:zoom="0.19442866"
     inkscape:cx="2587.0671"
     inkscape:cy="1041.5131"
     inkscape:window-width="2560"
     inkscape:window-height="1379"
     inkscape:window-x="0"
     inkscape:window-y="30"
     inkscape:window-maximized="1"
     inkscape:current-layer="layer1"
     showguides="true"
     inkscape:guide-bbox="true">
    <sodipodi:guide
       position="67.733335,503.76668"
       orientation="-1,0"
       id="guide14358"
       inkscape:label=""
       inkscape:locked="false"
       inkscape:color="rgb(0,0,255)" />
    <sodipodi:guide
       position="948.26668,67.733335"
       orientation="0,1"
       id="guide14360"
       inkscape:label=""
       inkscape:locked="false"
       inkscape:color="rgb(0,0,255)" />
    <sodipodi:guide
       position="948.26668,503.76668"
       orientation="-1,0"
       id="guide14362"
       inkscape:label=""
       inkscape:locked="false"
       inkscape:color="rgb(0,0,255)" />
    <sodipodi:guide
       position="948.26666,503.76669"
       orientation="0,-1"
       id="guide14364" />
  </sodipodi:namedview>
  <defs
     id="defs2" />
  <g
     inkscape:label="Layer 1"
     inkscape:groupmode="layer"
     id="layer1">
    <rect
       style="fill:#273445;stroke-width:0.264583;fill-opacity:1"
       id="rect846"
       width="1016"
       height="571.5"
       x="0"
       y="0" />
    <path
       id="path909"
       mask="none"
       style="fill:#ffffff;fill-opacity:1;stroke-width:0.81642"
       d="M 120.65,397.93334 A 52.916666,52.916666 0 0 0 67.733335,450.85001 52.916666,52.916666 0 0 0 120.65,503.76668 52.916666,52.916666 0 0 0 173.56667,450.85001 52.916666,52.916666 0 0 0 120.65,397.93334 Z m 0,10.58333 c 23.38006,0 42.33333,18.95329 42.33333,42.33334 0,23.38005 -18.95327,42.33333 -42.33333,42.33333 -23.380055,0 -42.333335,-18.95328 -42.333335,-42.33333 0,-23.38005 18.95328,-42.33334 42.333335,-42.33334 z m 0,3.52778 c -21.431715,0 -38.805555,17.37384 -38.805555,38.80556 0,7.48067 2.11853,14.46485 5.7857,20.39049 4.27126,-0.57068 8.48275,-1.58373 12.550135,-3.00723 -0.733335,-0.80573 -1.418675,-1.65627 -2.041905,-2.54903 -2.79201,-3.99955 -4.42161,-8.77703 -4.81108,-13.63913 -0.77927,-9.72419 3.46896,-19.49447 10.340795,-26.41871 3.89856,-3.92832 8.75946,-7.09241 14.20378,-8.08736 2.7222,-0.49749 5.56102,-0.44071 8.22861,0.29524 2.66759,0.73595 5.15569,2.16437 7.05108,4.18063 1.94009,2.06382 3.2222,4.70621 3.80132,7.47895 0.57895,2.77274 0.47386,5.66721 -0.14573,8.43118 -1.23918,5.52795 -4.45751,10.42447 -8.13594,14.73296 -5.60408,6.56399 -12.45018,12.04571 -20.0377,16.15715 2.86304,1.58734 6.09246,2.49795 9.3617,2.68545 4.3514,0.24954 8.72194,-0.76668 12.69552,-2.55764 3.97358,-1.79097 7.57107,-4.33455 10.86583,-7.18785 6.85855,-5.93956 12.49035,-13.28969 16.44827,-21.45329 -4.59529,-16.30561 -19.57944,-28.25737 -37.35483,-28.25737 z m 0.24667,7.84035 c -2.72788,-0.004 -5.42964,0.7906 -7.8183,2.10805 -4.77728,2.63492 -8.18994,7.22629 -10.69358,12.07369 -2.15929,4.18074 -3.766805,8.69505 -4.215755,13.37902 -0.44895,4.68399 0.31424,9.55098 2.628255,13.6481 1.10744,1.96078 2.56031,3.72012 4.25538,5.20347 0.81356,-0.36292 1.62348,-0.74036 2.42087,-1.13757 7.79009,-3.8808 14.79454,-9.42454 20.06424,-16.35112 2.97616,-3.91194 5.43959,-8.39014 6.0017,-13.27326 0.28105,-2.44156 0.0695,-4.95637 -0.75413,-7.27191 -0.82372,-2.31554 -2.27685,-4.42308 -4.23782,-5.90454 -2.1766,-1.64434 -4.92299,-2.47056 -7.65086,-2.47393 z m 38.21024,25.77104 c -3.64254,6.86125 -8.42723,13.11388 -14.10216,18.41886 -4.7638,4.45333 -10.22865,8.28257 -16.39107,10.4159 -6.16246,2.13332 -13.07528,2.47117 -19.16438,0.13677 -2.11438,-0.81062 -4.10378,-1.93562 -5.90489,-3.30729 -4.118605,1.82434 -8.412445,3.25756 -12.805755,4.25538 7.1178,8.6009 17.875085,14.0801 29.911345,14.0801 21.43175,0 38.80555,-17.37383 38.80555,-38.80555 0,-1.76143 -0.12134,-3.49495 -0.34864,-5.19417 z" />
    <text
       xml:space="preserve"
       style="font-weight:900;font-size:45.1556px;line-height:1.25;font-family:Inter;-inkscape-font-specification:'Inter Heavy';fill:#ffffff;stroke-width:0.264583"
       x="66.38636"
       y="100.57377"
       id="text5718"><tspan
         sodipodi:role="line"
         id="tspan5716"
         style="fill:#ffffff;stroke-width:0.264583"
         x="66.38636"
         y="100.57377">How to</tspan><tspan
         sodipodi:role="line"
         style="font-size:90.3111px;fill:#ffffff;stroke-width:0.264583"
         x="66.38636"
         y="198.8083"
         id="tspan7518">Download &amp; Install </tspan><tspan
         sodipodi:role="line"
         style="fill:#ffffff;stroke-width:0.264583"
         x="66.38636"
         y="269.90717"
         id="tspan12572">elementary OS</tspan></text>
  </g>
</svg>
